<svg width="101" height="81" viewBox="0 0 101 81" fill="none" xmlns="http://www.w3.org/2000/svg">
<path d="M50.5672 39.8356L63.1114 32.708H38.6641L50.5672 39.8356Z" fill="#FFF8F8"/>
<path d="M38.6641 33.5117V51.6102C38.6641 52.0139 38.9482 52.3406 39.2965 52.3406H62.3135C62.6626 52.3406 62.945 52.0119 62.945 51.6102V33.9295L50.7933 41.9598L38.6641 33.5117Z" fill="#FFF8F8"/>
<path d="M67.8119 4.34766H33.9625C32.1372 4.34766 30.6523 6.06493 30.6523 8.17595V76.8747C30.6523 78.9848 32.1372 80.703 33.9625 80.703H67.8119C69.6372 80.703 71.1221 78.9868 71.1221 76.8747V8.17494C71.1229 6.06493 69.6372 4.34766 67.8119 4.34766ZM53.0673 77.9969H48.7071V74.6716L50.905 72.0415L53.0673 74.6736V77.9969ZM33.9625 70.6529V8.17494H67.8119L67.8136 70.6529H33.9625Z" fill="#FFF8F8"/>
<path d="M49.3535 74.9726V77.25H52.4211V74.9726L50.9025 73.1211L49.3535 74.9726Z" fill="#FFF8F8"/>
<path d="M24.4052 14.5387V2.76429C24.4052 1.64316 23.6177 0.732423 22.6492 0.732423H2.35063C1.38209 0.731421 0.59375 1.64215 0.59375 2.76429V19.2146C0.59375 20.3357 1.38209 21.2465 2.35063 21.2465H18.9734L27.1349 27.4202C27.2727 27.5244 27.4312 27.5765 27.588 27.5765C27.7725 27.5765 27.9579 27.5044 28.1095 27.3631C28.3885 27.1006 28.4898 26.6598 28.359 26.2721L24.4052 14.5387ZM20.0884 19.8017C20.0866 19.7977 20.0849 19.7947 20.0832 19.7907C19.9324 19.5052 19.6656 19.3308 19.3762 19.3308H2.35063C2.29519 19.3308 2.2484 19.2777 2.2484 19.2126V2.76429C2.2484 2.69917 2.29519 2.64607 2.35063 2.64607H22.6492C22.7046 2.64607 22.7505 2.69817 22.7505 2.76429V14.7201C22.7505 14.8393 22.7696 14.9565 22.8068 15.0677L25.8779 24.1821L20.0884 19.8017Z" fill="#FFF8F8"/>
<path d="M98.6472 30.6143H78.3487C77.3801 30.6143 76.5935 31.527 76.5935 32.6471V44.4236L72.6405 56.1539C72.5097 56.5416 72.6111 56.9825 72.89 57.245C73.0417 57.3882 73.227 57.4584 73.4116 57.4584C73.571 57.4584 73.7269 57.4073 73.8646 57.3021L82.0262 51.1303H98.6489C99.6183 51.1303 100.405 50.2166 100.405 49.0975V32.6471C100.404 31.528 99.6166 30.6143 98.6472 30.6143ZM98.7494 49.0975C98.7494 49.1616 98.7026 49.2167 98.6472 49.2167H81.6216C81.3322 49.2167 81.0646 49.39 80.9147 49.6766C80.913 49.6786 80.9112 49.6836 80.9095 49.6876L75.1191 54.0659L78.1901 44.9506C78.2274 44.8414 78.2473 44.7211 78.2473 44.6029V32.6471C78.2473 32.582 78.2932 32.5279 78.3478 32.5279H98.6463C98.7018 32.5279 98.7486 32.581 98.7486 32.6471V49.0975H98.7494Z" fill="#FFF8F8"/>
</svg>
