<svg width="64" height="40" viewBox="0 0 64 40" fill="none" xmlns="http://www.w3.org/2000/svg">
<path d="M22.1309 3.07617H14.4634L3 19.0186L10.6675 37.5421H18.3351" stroke="white" stroke-width="4.55497"/>
<path d="M41.8691 37.4658H49.5366L61 21.5234L53.3325 2.99985H45.6649" stroke="white" stroke-width="4.55497"/>
<path d="M18.4186 16.8064H13.7497L14.5924 12.6386H29.305L28.4623 16.8064H23.7934L21.4476 28.5811H16.0728L18.4186 16.8064ZM30.701 12.6386H36.0759L32.8874 28.5811H27.5125L30.701 12.6386ZM47.7049 20.1771H52.3738L51.0073 27.0551C50.157 27.6625 49.1777 28.1331 48.0693 28.4672C46.9761 28.786 45.7994 28.9455 44.5392 28.9455C42.9146 28.9455 41.4798 28.6494 40.2348 28.0572C39.0049 27.4499 38.0484 26.6072 37.3651 25.5292C36.6971 24.4512 36.363 23.2138 36.363 21.8169C36.363 19.9646 36.7958 18.3172 37.6612 16.8748C38.5266 15.4324 39.7337 14.3088 41.2824 13.5041C42.8311 12.6842 44.6075 12.2742 46.6117 12.2742C49.9217 12.2742 52.3358 13.3143 53.8541 15.3944L50.0052 18.3779C49.5041 17.7402 48.9651 17.2923 48.3882 17.0342C47.8112 16.7609 47.1355 16.6242 46.3612 16.6242C45.435 16.6242 44.6227 16.8292 43.9243 17.2392C43.241 17.6491 42.7096 18.2261 42.33 18.9701C41.9657 19.6989 41.7835 20.5339 41.7835 21.4753C41.7835 22.4167 42.0947 23.1758 42.7172 23.7528C43.3397 24.3146 44.1976 24.5955 45.2908 24.5955C45.8374 24.5955 46.3612 24.5195 46.8622 24.3677L47.7049 20.1771Z" fill="white"/>
</svg>
